# xmcd
#
# Track frame offsets:
# 150
# 6479
# 28465
# 50203
# 68153
# 83377
# 105395
# 125499
# 129202
# 149286
# 169037
# 189546
# 212641
# 243187
# 262681
#
# Disc length: 4069 seconds
#
#
# Revision: 5
# Processed by: cddbd v1.5.1PL2 Copyright (c) Steve Scherf et al.
# Submitted via: FreeRIP 2.80 
#
DISCID=ca0fe30f
DTITLE=Aventura - God's Project
DYEAR=2005
DGENRE=Latin
TTITLE0=Intro
TTITLE1=Angelito
TTITLE2=La Boda
TTITLE3=Un Chi Chi
TTITLE4=Volvio La Traicionera
TTITLE5=La Niña
TTITLE6=Our Song
TTITLE7=Bar Skit
TTITLE8=Ella Y Yo
TTITLE9=Un Beso
TTITLE10=Voy Malacostumbrado
TTITLE11=Ciego De Amor
TTITLE12=Audition Skit
TTITLE13=Por Tu Orgullo
TTITLE14=You're Lying
EXTD=god's project
EXTT0=
EXTT1=
EXTT2=
EXTT3=
EXTT4=
EXTT5=
EXTT6=
EXTT7=
EXTT8=
EXTT9=
EXTT10=
EXTT11=
EXTT12=
EXTT13=
EXTT14=
PLAYORDER=
